# xmcd
#
# Track frame offsets:
#	150
#	16484
#	36182
#	50225
#	66967
#	82467
#	98906
#	125391
#	137366
#	149912
#	163737
#	176277
#	192560
#	206488
#	219111
#
# Disc length: 3073 seconds
#
# Revision: 0
# Processed by: cddbd v1.4PL0 Copyright (c) Steve Scherf et al.
# Submitted via: dBpowerAMP V4.0
#
DISCID=e60bff0f
DTITLE=Fats Domino - The Paramount Years CD 3
DYEAR=1996
DGENRE=R&B
TTITLE0=If I Get Rich
TTITLE1=My Old Time Used To Be
TTITLE2=Any Old Time
TTITLE3=Shame On You
TTITLE4=Sleeping On The Job
TTITLE5=The Girl I Love
TTITLE6=After Hours/I Almost Lost My Mind
TTITLE7=Just Can't Get New Orleans
TTITLE8=Move With The Groove
TTITLE9=Love Me
TTITLE10=Something About You Baby
TTITLE11=If I GetRich (Alternate Track)
TTITLE12=Who Cares (AlternateTrack)
TTITLE13=I'm Walkin' 1990
TTITLE14=Blueberry Hill 1990
EXTD=CD3 of 3 CD set (Subtitled The Most Wanted)
EXTT0=
EXTT1=
EXTT2=
EXTT3=
EXTT4=
EXTT5=
EXTT6=
EXTT7=
EXTT8=
EXTT9=
EXTT10=
EXTT11=
EXTT12=
EXTT13=
EXTT14=
PLAYORDER=
